<svg viewBox="0 0 30 30" width="30" height="30" xmlns="http://www.w3.org/2000/svg"><defs><filter id="a"><feColorMatrix in="SourceGraphic" values="0 0 0 0 0.140513 0 0 0 0 0.064018 0 0 0 0 0.322209 0 0 0 1.000000 0"/></filter></defs><g filter="url(#a)" fill="none" fill-rule="evenodd"><path class="chevron" d="M15 0C6.716 0 0 6.716 0 15c0 8.284 6.716 15 15 15 8.284 0 15-6.716 15-15 0-8.284-6.716-15-15-15zm3.475 15.663l-4.218 4.219a.935.935 0 01-.663.274c-.828 0-1.255-1.008-.663-1.6L16.487 15l-3.556-3.556a.937.937 0 111.326-1.326l4.218 4.22a.937.937 0 010 1.325z" fill-rule="nonzero"/></g></svg>
